<?xml version="1.0" encoding="utf-8"?>
<!-- Generator: Adobe Illustrator 16.0.0, SVG Export Plug-In . SVG Version: 6.00 Build 0)  -->
<!DOCTYPE svg PUBLIC "-//W3C//DTD SVG 1.1//EN" "http://www.w3.org/Graphics/SVG/1.1/DTD/svg11.dtd">
<svg version="1.1" id="Layer_1" xmlns="http://www.w3.org/2000/svg" xmlns:xlink="http://www.w3.org/1999/xlink" x="0px" y="0px"
	 width="605px" height="1587px" viewBox="0 0 605 1587" enable-background="new 0 0 605 1587" xml:space="preserve">
<g id="_x31_">
	<circle fill="#FFFFFF" stroke="#000000" stroke-miterlimit="10" cx="144.097" cy="75.381" r="8.619"/>
	<rect x="140.906" y="71.222" fill="none" width="16.594" height="12.119"/>
	<text transform="matrix(1 0 0 1 140.9062 79.7427)" font-family="'MyriadPro-Regular'" font-size="12">1</text>
</g>
<g id="_x32_">
	<circle fill="#FFFFFF" stroke="#000000" stroke-miterlimit="10" cx="216.097" cy="74.619" r="8.619"/>
	<rect x="212.906" y="70.46" fill="none" width="16.594" height="12.119"/>
	<text transform="matrix(1 0 0 1 212.9058 78.9805)" font-family="'MyriadPro-Regular'" font-size="12">2</text>
</g>
<g id="_x33_">
	<circle fill="#FFFFFF" stroke="#000000" stroke-miterlimit="10" cx="288.097" cy="74.619" r="8.619"/>
	<rect x="284.906" y="70.46" fill="none" width="16.594" height="12.119"/>
	<text transform="matrix(1 0 0 1 284.9062 78.9805)" font-family="'MyriadPro-Regular'" font-size="12">3</text>
</g>
<g id="_x34_">
	<circle fill="#FFFFFF" stroke="#000000" stroke-miterlimit="10" cx="358.691" cy="74.658" r="8.619"/>
	<rect x="355.5" y="70.5" fill="none" width="16.594" height="12.119"/>
	<text transform="matrix(1 0 0 1 355.5 79.02)" font-family="'MyriadPro-Regular'" font-size="12">4</text>
</g>
<g id="_x35_">
	<circle fill="#FFFFFF" stroke="#000000" stroke-miterlimit="10" cx="432.098" cy="75.381" r="8.619"/>
	<rect x="428.906" y="71.222" fill="none" width="16.594" height="12.119"/>
	<text transform="matrix(1 0 0 1 428.9062 79.7427)" font-family="'MyriadPro-Regular'" font-size="12">5</text>
</g>
<g id="_x36_">
	<circle fill="#FFFFFF" stroke="#000000" stroke-miterlimit="10" cx="503.619" cy="74.619" r="8.619"/>
	<rect x="500.429" y="70.46" fill="none" width="16.594" height="12.119"/>
	<text transform="matrix(1 0 0 1 500.4287 78.981)" font-family="'MyriadPro-Regular'" font-size="12">6</text>
</g>
<g id="_x37_">
	<circle fill="#FFFFFF" stroke="#000000" stroke-miterlimit="10" cx="147.191" cy="146.659" r="8.619"/>
	<rect x="144" y="142.5" fill="none" width="16.594" height="12.119"/>
	<text transform="matrix(1 0 0 1 144.0005 151.0205)" font-family="'MyriadPro-Regular'" font-size="12">7</text>
</g>
<g id="_x38_">
	<circle fill="#FFFFFF" stroke="#000000" stroke-miterlimit="10" cx="215.619" cy="146.619" r="8.619"/>
	<rect x="212.429" y="142.46" fill="none" width="16.594" height="12.119"/>
	<text transform="matrix(1 0 0 1 212.4287 150.9805)" font-family="'MyriadPro-Regular'" font-size="12">8</text>
</g>
<g id="_x39_">
	<circle fill="#FFFFFF" stroke="#000000" stroke-miterlimit="10" cx="287.619" cy="146.619" r="8.619"/>
	<rect x="284.428" y="142.46" fill="none" width="16.594" height="12.119"/>
	<text transform="matrix(1 0 0 1 284.4277 150.98)" font-family="'MyriadPro-Regular'" font-size="12">9</text>
</g>
<g id="_x31_0">
	<circle fill="#FFFFFF" stroke="#000000" stroke-miterlimit="10" cx="359.619" cy="151.119" r="8.619"/>
	<rect x="356.428" y="146.96" fill="none" width="16.594" height="12.119"/>
	<text transform="matrix(1 0 0 1 356.4277 155.4805)" font-family="'MyriadPro-Regular'" font-size="12">10</text>
</g>
<g id="_x31_1">
	<circle fill="#FFFFFF" stroke="#000000" stroke-miterlimit="10" cx="432.098" cy="147.381" r="8.619"/>
	<rect x="428.906" y="143.222" fill="none" width="16.594" height="12.119"/>
	<text transform="matrix(1 0 0 1 428.9062 151.7432)" font-family="'MyriadPro-Regular'" font-size="12">11</text>
</g>
<g id="_x31_2">
	<circle fill="#FFFFFF" stroke="#000000" stroke-miterlimit="10" cx="504.098" cy="146.619" r="8.619"/>
	<rect x="500.906" y="142.46" fill="none" width="16.594" height="12.119"/>
	<text transform="matrix(1 0 0 1 500.9062 150.9805)" font-family="'MyriadPro-Regular'" font-size="12">12</text>
</g>
<g id="_x31_3">
	<circle fill="#FFFFFF" stroke="#000000" stroke-miterlimit="10" cx="144.097" cy="223.119" r="8.619"/>
	<rect x="140.906" y="218.96" fill="none" width="16.594" height="12.119"/>
	<text transform="matrix(1 0 0 1 140.9058 227.4805)" font-family="'MyriadPro-Regular'" font-size="12">13</text>
</g>
<g id="_x31_4">
	<circle fill="#FFFFFF" stroke="#000000" stroke-miterlimit="10" cx="216.097" cy="218.619" r="8.619"/>
	<rect x="212.905" y="214.46" fill="none" width="16.595" height="12.119"/>
	<text transform="matrix(1 0 0 1 212.9053 222.9805)" font-family="'MyriadPro-Regular'" font-size="12">14</text>
</g>
<g id="_x31_5">
	<circle fill="#FFFFFF" stroke="#000000" stroke-miterlimit="10" cx="288.098" cy="223.119" r="8.619"/>
	<rect x="284.906" y="218.96" fill="none" width="16.594" height="12.119"/>
	<text transform="matrix(1 0 0 1 284.9067 227.4814)" font-family="'MyriadPro-Regular'" font-size="12">15</text>
</g>
<g id="_x31_6">
	<circle fill="#FFFFFF" stroke="#000000" stroke-miterlimit="10" cx="360.097" cy="219.381" r="8.619"/>
	<rect x="356.906" y="215.222" fill="none" width="16.594" height="12.119"/>
	<text transform="matrix(1 0 0 1 356.9062 223.7432)" font-family="'MyriadPro-Regular'" font-size="12">16</text>
</g>
<g id="_x31_7">
	<circle fill="#FFFFFF" stroke="#000000" stroke-miterlimit="10" cx="431.619" cy="219.381" r="8.619"/>
	<rect x="428.429" y="215.222" fill="none" width="16.594" height="12.119"/>
	<text transform="matrix(1 0 0 1 428.4287 223.7422)" font-family="'MyriadPro-Regular'" font-size="12">17</text>
</g>
<g id="_x31_8">
	<circle fill="#FFFFFF" stroke="#000000" stroke-miterlimit="10" cx="504.098" cy="218.619" r="8.619"/>
	<rect x="500.906" y="214.46" fill="none" width="16.594" height="12.119"/>
	<text transform="matrix(1 0 0 1 500.9062 222.9805)" font-family="'MyriadPro-Regular'" font-size="12">18</text>
</g>
<g id="_x31_9">
	<circle fill="#FFFFFF" stroke="#000000" stroke-miterlimit="10" cx="113.074" cy="1029.381" r="8.619"/>
	<rect x="109.883" y="1025.222" fill="none" width="16.594" height="12.119"/>
	<text transform="matrix(1 0 0 1 109.8828 1033.7432)" font-family="'MyriadPro-Regular'" font-size="12">19</text>
</g>
<g id="_x32_0">
	<circle fill="#FFFFFF" stroke="#000000" stroke-miterlimit="10" cx="185.075" cy="1029.381" r="8.619"/>
	<rect x="181.884" y="1025.222" fill="none" width="16.594" height="12.119"/>
	<text transform="matrix(1 0 0 1 181.8838 1033.7422)" font-family="'MyriadPro-Regular'" font-size="12">20</text>
</g>
<g id="_x32_1">
	<circle fill="#FFFFFF" stroke="#000000" stroke-miterlimit="10" cx="256.597" cy="1029.381" r="8.619"/>
	<rect x="253.406" y="1025.222" fill="none" width="16.594" height="12.119"/>
	<text transform="matrix(1 0 0 1 253.4058 1033.7432)" font-family="'MyriadPro-Regular'" font-size="12">21</text>
</g>
<g id="_x32_2">
	<circle fill="#FFFFFF" stroke="#000000" stroke-miterlimit="10" cx="333.097" cy="1029.381" r="8.619"/>
	<rect x="329.905" y="1025.223" fill="none" width="16.594" height="12.118"/>
	<text transform="matrix(1 0 0 1 329.9053 1033.7422)" font-family="'MyriadPro-Regular'" font-size="12">22</text>
</g>
<g id="_x32_3">
	<circle fill="#FFFFFF" stroke="#000000" stroke-miterlimit="10" cx="401.075" cy="1028.619" r="8.619"/>
	<rect x="397.884" y="1024.46" fill="none" width="16.594" height="12.119"/>
	<text transform="matrix(1 0 0 1 397.8838 1032.9805)" font-family="'MyriadPro-Regular'" font-size="12">23</text>
</g>
<g id="_x32_4">
	<circle fill="#FFFFFF" stroke="#000000" stroke-miterlimit="10" cx="472.597" cy="1028.619" r="8.619"/>
	<rect x="469.405" y="1024.46" fill="none" width="16.594" height="12.12"/>
	<text transform="matrix(1 0 0 1 469.4053 1032.9805)" font-family="'MyriadPro-Regular'" font-size="12">24</text>
</g>
<g id="_x32_5">
	<circle fill="#FFFFFF" stroke="#000000" stroke-miterlimit="10" cx="112.597" cy="1101.381" r="8.619"/>
	<rect x="109.405" y="1097.223" fill="none" width="16.594" height="12.119"/>
	<text transform="matrix(1 0 0 1 109.4053 1105.7432)" font-family="'MyriadPro-Regular'" font-size="12">25</text>
</g>
<g id="_x32_6">
	<circle fill="#FFFFFF" stroke="#000000" stroke-miterlimit="10" cx="185.074" cy="1100.619" r="8.619"/>
	<rect x="181.883" y="1096.461" fill="none" width="16.594" height="12.118"/>
	<text transform="matrix(1 0 0 1 181.8838 1104.9805)" font-family="'MyriadPro-Regular'" font-size="12">26</text>
</g>
<g id="_x32_7">
	<circle fill="#FFFFFF" stroke="#000000" stroke-miterlimit="10" cx="261.097" cy="1101.381" r="8.619"/>
	<rect x="257.905" y="1097.223" fill="none" width="16.594" height="12.119"/>
	<text transform="matrix(1 0 0 1 257.9053 1105.7422)" font-family="'MyriadPro-Regular'" font-size="12">27</text>
</g>
<g id="_x32_8">
	<circle fill="#FFFFFF" stroke="#000000" stroke-miterlimit="10" cx="328.597" cy="1101" r="8.619"/>
	<rect x="325.405" y="1096.842" fill="none" width="16.594" height="12.119"/>
	<text transform="matrix(1 0 0 1 325.4062 1105.3613)" font-family="'MyriadPro-Regular'" font-size="12">28</text>
</g>
<g id="_x32_9">
	<circle fill="#FFFFFF" stroke="#000000" stroke-miterlimit="10" cx="396.574" cy="1101.381" r="8.619"/>
	<rect x="393.384" y="1097.222" fill="none" width="16.594" height="12.119"/>
	<text transform="matrix(1 0 0 1 393.3828 1105.7422)" font-family="'MyriadPro-Regular'" font-size="12">29</text>
</g>
<g id="_x33_0">
	<circle fill="#FFFFFF" stroke="#000000" stroke-miterlimit="10" cx="472.597" cy="1100.619" r="8.619"/>
	<rect x="469.405" y="1096.46" fill="none" width="16.595" height="12.119"/>
	<text transform="matrix(1 0 0 1 469.4053 1104.9805)" font-family="'MyriadPro-Regular'" font-size="12">30</text>
</g>
<g id="_x33_1">
	<circle fill="#FFFFFF" stroke="#000000" stroke-miterlimit="10" cx="310.598" cy="506.619" r="8.619"/>
	<rect x="307.406" y="502.459" fill="none" width="16.594" height="12.119"/>
	<text transform="matrix(1 0 0 1 307.4062 510.981)" font-family="'MyriadPro-Regular'" font-size="12">31</text>
</g>
<g id="_x33_2">
	<circle fill="#FFFFFF" stroke="#000000" stroke-miterlimit="10" cx="310.597" cy="795.381" r="8.619"/>
	<rect x="307.406" y="791.222" fill="none" width="16.594" height="12.119"/>
	<text transform="matrix(1 0 0 1 307.4062 799.7422)" font-family="'MyriadPro-Regular'" font-size="12">32</text>
</g>
</svg>
